<svg width="49" height="49" viewBox="0 0 49 49" fill="none" xmlns="http://www.w3.org/2000/svg">
<g id="Frame">
<g clip-path="url(#clip0_25_225)">
<g id="Mask group">
<mask id="mask0_25_225" style="mask-type:luminance" maskUnits="userSpaceOnUse" x="0" y="0" width="49" height="49">
<g id="Group">
<path id="Vector" d="M48.1866 0.744141H0.744263V48.1865H48.1866V0.744141Z" fill="white"/>
</g>
</mask>
<g mask="url(#mask0_25_225)">
<g id="Group_2">
<g id="Group_3">
<g id="Group_4">
<path id="Vector_2" d="M36.0541 43.1104C30.657 59.2691 16.2611 64.2527 8.64961 44.1876C7.59956 41.4292 10.3362 40.4064 12.2513 39.1877C13.5625 38.3552 14.2535 37.6371 14.1719 36.8917C13.791 33.3879 12.1643 23.6274 12.1643 23.6274L12.001 23.3119C12.001 23.3119 12.0391 23.2248 11.8813 23.3772C11.7181 23.5404 11.3427 25.2379 9.86831 25.2379C8.53535 25.2379 7.19151 24.6448 6.54952 20.5426C6.30469 19.0573 6.43527 15.1618 8.08922 14.4545C8.7693 14.1662 9.39497 14.0628 10.0043 14.411C10.6191 14.7592 9.29704 13.2141 16.0978 7.55579C20.5156 3.86703 27.496 3.32841 30.3142 3.95408C33.1325 4.57976 35.9453 5.95624 37.1912 8.87786C38.7037 12.4143 35.7821 15.0965 36.4295 23.1595C36.3098 26.0757 36.473 32.4739 28.4535 34.6175C26.9302 35.0256 27.4035 37.2508 29.6886 37.7949C33.3338 38.9374 36.0541 41.7284 36.0541 43.1212" fill="white"/>
<path id="Vector_3" fill-rule="evenodd" clip-rule="evenodd" d="M36.054 18.0018L36.0595 17.9257C36.2826 15.9453 36.5056 14.0247 37.5339 12.3C37.8875 12.5394 37.844 12.8441 37.7352 13.127C36.6525 15.9126 36.7559 18.8071 36.8538 21.7015L36.8756 22.4632C36.9898 26.0757 36.0867 29.3619 33.6819 32.1203C32.8441 33.0779 31.7342 33.7416 30.608 34.3129C29.4437 34.9113 29.1988 35.4064 29.5634 36.685L29.6069 36.8265C29.6831 37.0386 29.7592 37.2563 29.5525 37.4684C29.3077 37.7187 29.0356 37.648 28.7473 37.5664L28.7146 37.5609C26.0171 36.8056 23.4877 35.5446 21.2609 33.845C20.9345 33.6056 20.6734 33.2846 20.4176 32.969L20.4013 32.9473C20.2653 32.7841 20.2381 32.5229 20.4285 32.3814C20.6081 32.2454 20.7441 32.3542 20.9019 32.4794L20.9563 32.5283C22.1443 33.4923 23.5862 34.0914 25.1075 34.253C25.8365 34.3292 26.5547 34.302 27.2837 34.2748C27.6863 34.2585 28.089 34.2421 28.497 34.2476C29.0519 34.2476 29.5144 33.9919 29.9496 33.747L30.102 33.66C31.6145 32.8167 33.0563 31.8755 34.0301 30.3575C34.9061 28.9974 35.4393 27.5175 35.7494 25.9561C36.1411 23.992 36.1085 22.0007 36.0758 19.9822C36.0595 19.3294 36.0486 18.6656 36.0486 18.0018H36.054ZM8.66587 13.8996C9.85737 13.8071 10.5157 14.5089 11.0761 15.3305C11.7402 16.3342 12.1578 17.4807 12.2948 18.6765C12.322 18.8778 12.3492 19.09 12.2295 19.2913C11.9847 19.3239 11.9629 19.1281 11.9575 18.9866C11.9303 17.8604 11.4297 16.8811 10.9292 15.9344C10.5701 15.2543 10.0478 14.596 9.22081 14.4328C8.28502 14.2424 7.4254 15.0857 7.00103 16.1847C6.21214 18.2303 6.34816 20.2434 7.0772 22.2238C7.39276 23.0888 7.78992 23.9702 8.5897 24.5741C9.39491 25.1889 10.3688 25.0801 10.9618 24.264L11.0706 24.128C11.1794 23.9865 11.2883 23.8505 11.3427 23.6927C11.4569 23.3772 11.6365 23.0834 11.9575 23.1269C12.3274 23.1813 12.3927 23.5785 12.4308 23.8886C12.7683 26.7387 13.1674 29.5812 13.6277 32.4141L13.9487 34.5251C14.0902 35.4554 14.2534 36.7938 14.1446 37.3596C14.1376 37.3993 14.1321 37.4392 14.1283 37.4793C14.1065 37.6317 14.0956 37.7514 13.8998 37.7786C13.6332 37.8221 13.5189 37.6698 13.4808 37.4304C13.3557 36.5055 13.3176 36.1464 13.2632 34.7318C13.2142 33.3608 12.9585 32.0115 12.6974 30.6568L12.4253 29.1878C12.1424 27.5121 11.865 25.8146 11.8378 23.9104L11.7289 24.0736C11.3155 24.6884 10.9836 25.1889 10.396 25.3793C9.95981 25.5465 9.48181 25.5706 9.031 25.4484C8.58018 25.3262 8.17987 25.0638 7.88786 24.6993C7.1212 23.8334 6.58265 22.7899 6.32095 21.6634C5.86394 19.8136 5.78233 18.0127 6.36992 16.1901C6.65283 15.3142 7.65935 13.7581 8.66587 13.905V13.8996ZM10.5483 20.8364C10.7877 21.0105 11.0053 21.1629 11.2012 20.5426C11.1414 18.2467 10.4014 16.7777 9.25346 16.7178C9.86281 17.5122 10.4504 18.2848 10.5048 19.3566C10.2784 19.241 10.0798 19.0776 9.92265 18.8778C9.81384 18.7581 9.70503 18.6384 9.56901 18.5513L9.40579 18.4208C9.14464 18.2249 8.87805 18.0182 8.43736 18.1759C8.6441 18.4915 8.92702 18.72 9.21537 18.9376C9.54181 19.1933 9.86825 19.4436 10.0641 19.8353C9.4874 20.2543 9.23713 20.7983 9.53637 21.4621C9.79752 22.0334 10.1838 22.5067 10.9455 22.5393C10.9129 22.1966 10.6898 21.9463 10.4667 21.7015C10.1947 21.4077 9.93898 21.1248 10.0587 20.6895C10.2328 20.6079 10.396 20.7276 10.5483 20.8364Z" fill="black"/>
</g>
<g id="Group_5">
<path id="Vector_4" d="M58.1648 72.506L-12.7648 72.3156C-12.7648 72.3156 -10.224 55.7706 -3.43951 48.1047C-0.398197 44.6717 2.1317 41.2822 8.92706 38.8448C10.0914 38.4258 11.816 34.057 12.7409 33.6C13.6169 33.1647 13.0402 36.44 13.8508 37.1037C15.5039 38.4831 17.2489 39.7482 19.0739 40.8904C22.2784 42.9144 23.7528 47.1417 23.7528 47.1417C23.7528 47.1417 25.1891 43.0667 26.3861 41.0645C27.2294 39.65 30.0476 35.4933 30.0476 35.4933C30.0476 35.4933 35.1999 37.1037 37.1096 38.5238C38.2684 39.3834 37.5883 39.193 42.844 42.1962C47.4087 44.8023 51.8864 51.9404 54.2694 57.8652C56.8047 64.1655 58.1648 72.5005 58.1648 72.5005V72.506Z" fill="white"/>
<path id="Vector_5" fill-rule="evenodd" clip-rule="evenodd" d="M57.8166 72.5061C57.4521 71.0371 57.1365 69.5681 56.821 68.0937C56.685 67.4409 56.5489 66.788 56.402 66.146C55.9559 64.1329 55.3683 62.1743 54.7209 60.2266C54.0971 58.3317 53.3333 56.4859 52.4358 54.7043C51.5443 52.8851 50.5262 51.1307 49.3891 49.4541C47.7569 47.0983 45.9832 44.8568 43.6329 43.1756C41.9245 41.9569 40.0312 41.0429 38.1433 40.1343C37.4741 39.8078 36.7885 39.9602 36.1193 40.1071L35.9017 40.1615C35.3631 40.2703 34.8353 40.39 34.3022 40.5097C33.6633 40.6552 33.0231 40.7949 32.3816 40.9286C32.1041 40.983 32.0008 41.1462 31.9192 41.3748L31.5927 42.3269C31.3697 42.9906 31.1412 43.6544 30.9344 44.3236C30.793 44.7697 30.5536 44.9656 30.0802 44.9547C29.6776 44.9493 29.275 44.9547 28.8724 44.9656C28.4372 44.971 28.0073 44.9819 27.5775 44.971C26.8158 44.9547 26.4404 45.2267 26.5329 46.1408C26.6363 47.1201 26.6309 48.1048 26.6309 49.095C26.6309 49.6772 26.6309 50.2593 26.6472 50.8469C26.7016 52.3431 26.7016 53.8556 26.6744 55.3463C26.62 58.1374 26.62 60.9284 26.62 63.7249C26.6254 66.6193 26.6309 69.5192 26.5656 72.4408C26.3564 72.502 26.1347 72.5058 25.9236 72.4517C25.8529 69.5083 25.8202 66.6139 25.8365 63.7195C25.8474 61.9893 25.8365 60.2538 25.8311 58.5182C25.8093 55.0416 25.793 51.5651 25.929 48.0885C25.9399 47.8981 25.8746 47.724 25.6624 47.7185C25.5384 47.8574 25.4133 47.9952 25.287 48.132C24.5906 48.8937 23.9051 49.6445 23.5787 50.7381C23.1271 50.2158 22.9421 49.6064 22.7571 49.0243C22.5558 48.3769 22.36 47.7566 21.8322 47.2887C21.7234 47.6043 21.7234 47.8926 21.7234 48.1864V49.9818L21.7343 53.7359L21.7288 58.3278C21.7234 61.6466 21.718 64.9599 21.7288 68.2733C21.7343 68.6759 21.7289 69.0785 21.7125 69.4757C21.6908 70.4876 21.6636 71.4996 21.8213 72.5007H21.0488C20.9774 71.3686 20.9429 70.2345 20.9454 69.1003V47.3921C20.9454 46.0863 20.5265 45.7164 19.2806 45.3791C17.2131 44.835 15.1348 44.242 13.5461 42.6751C12.9585 42.0984 12.3274 42.3867 11.8051 42.6207L11.7398 42.6533C11.2719 42.8709 10.7877 43.0287 10.3035 43.1865C9.65063 43.4041 8.99775 43.6217 8.39384 43.9645C8.26871 44.0298 8.15445 44.106 8.03476 44.1821C7.8082 44.335 7.56775 44.4661 7.31659 44.5738L7.1969 44.6283C7.03368 44.7044 6.8759 44.7752 6.69092 44.6011C6.48418 44.4161 6.48962 44.2202 6.58211 43.9754L6.89223 43.045C7.16426 42.2181 7.43629 41.3965 7.79537 40.5967L7.84978 40.4879C7.92595 40.3628 7.99668 40.2377 7.92595 40.069C7.70832 39.9221 7.50702 40.0309 7.32748 40.1288L7.22955 40.1833L7.10985 40.2377L7.00104 40.2921C4.69421 41.4509 2.38737 42.6098 0.483151 44.427C-0.874641 45.7008 -2.12988 47.0798 -3.27089 48.551C-5.46313 51.4631 -7.25119 54.6586 -8.58639 58.0503C-9.87038 61.2494 -10.9803 64.5247 -11.5407 67.9523C-11.6495 68.5834 -11.7474 69.2145 -11.8508 69.8511L-12.2806 72.4462C-12.5798 72.5007 -12.8682 72.5007 -13.2109 72.5007C-12.9607 70.7052 -12.6723 68.9098 -12.3296 67.1199C-12.2044 66.4724 -12.0412 65.8359 -11.8725 65.1993C-11.7746 64.8076 -11.6712 64.4213 -11.5842 64.0296C-11.2756 62.8044 -10.907 61.5951 -10.4797 60.4061L-10.4253 60.2592C-9.29463 56.8428 -7.76041 53.5734 -5.85519 50.5205C-4.93597 49.0565 -3.89881 47.67 -2.75403 46.3747C-0.686586 44.0189 1.59848 41.9134 4.4657 40.5913C6.02172 39.8731 7.46893 39.0135 8.90526 38.0995C9.31331 37.8383 9.50373 37.4629 9.69959 37.0875C9.77576 36.9515 9.84649 36.8101 9.93354 36.674C10.7333 35.3955 11.5657 34.1496 12.8225 33.2573L12.9096 33.192C13.0674 33.0669 13.2197 32.9526 13.4373 33.0832C13.6332 33.192 13.6223 33.3607 13.6169 33.5402V33.6926C13.6495 34.5957 13.7257 35.4934 13.8018 36.3911C13.829 36.6795 13.9487 36.9352 14.2371 37.0658C15.4558 37.6262 16.495 38.4422 17.5341 39.2638C18.1598 39.7534 18.7855 40.2431 19.4492 40.6783C21.0497 41.6946 22.3762 43.0883 23.3121 44.7371C23.4209 44.9329 23.5025 45.1397 23.595 45.3791L23.7364 45.7381C24.2424 43.6979 25.3306 42.0276 26.4187 40.3682L27.0552 39.3889C27.164 39.2148 27.2511 39.0298 27.3381 38.8449C27.4578 38.5946 27.5775 38.3443 27.7625 38.1158C27.8963 37.9528 27.9799 37.7545 28.0031 37.5449C28.0263 37.3353 27.9881 37.1235 27.8931 36.9352C27.7734 36.6795 27.7081 36.4129 27.8115 36.1354C28.2739 35.994 28.5188 36.2606 28.7799 36.538L28.8343 36.5924C29.324 36.2769 29.2696 35.8688 29.0139 35.4336C28.9268 35.2812 28.8506 35.1343 28.9812 34.9874C29.1064 34.8514 29.275 34.8677 29.4382 34.9167C31.4567 35.4989 33.4643 36.1137 35.325 37.1256C35.5807 37.2671 35.8473 37.3976 36.1139 37.5228C36.8375 37.871 37.5611 38.2192 38.0889 38.8013C38.9267 39.7262 39.9985 40.2268 41.0703 40.7273C41.7123 41.032 42.3489 41.3258 42.9419 41.7175C44.2722 42.5476 45.5026 43.5279 46.6089 44.6391C47.8602 45.9612 49.03 47.3595 50.0474 48.8611C50.9396 50.1668 51.7884 51.5052 52.5283 52.9143C53.5361 54.8334 54.4087 56.8204 55.1398 58.861C55.8199 60.7489 56.402 62.664 56.9189 64.6008C57.2889 66.0045 57.5283 67.43 57.7622 68.8609C57.9635 70.0578 58.1594 71.2547 58.4368 72.4517C58.2627 72.5061 58.0723 72.5061 57.8166 72.5061ZM22.3273 44.4977C21.0711 42.9924 19.5988 41.6815 17.9585 40.6076C17.4673 40.2834 16.9967 39.9291 16.5494 39.5467C15.8965 39.0135 15.2436 38.4749 14.471 38.1213C13.557 37.7078 13.0674 37.1202 13.0347 36.1354V36.0048C13.0293 35.7927 13.0238 35.5805 12.9966 35.3737C12.9531 34.9602 12.4689 34.7426 12.2132 35.0527C12.1261 35.1615 12.0227 35.2486 11.9248 35.3411C11.7815 35.4591 11.6551 35.5965 11.5494 35.7491C10.2981 37.7404 9.0576 39.7317 8.15445 41.9134C8.03476 42.2072 7.95315 42.5935 8.20342 42.8328C8.40472 43.0287 8.66043 42.9253 8.9107 42.822C8.95394 42.8031 8.99747 42.785 9.04128 42.7676L10.1022 42.3649C10.8149 42.082 11.5331 41.8046 12.2676 41.5815C13.0456 41.3475 13.6386 41.4836 14.1881 42.0984C14.77 42.7176 15.4816 43.2007 16.2719 43.5129C17.1369 43.8938 18.0238 44.1821 18.9106 44.4759C19.6832 44.7316 20.4557 44.9873 21.212 45.2975C22.1423 45.6783 23.0074 46.1734 22.9965 47.3921C22.9965 47.5825 23.04 47.7729 23.3556 47.7457C23.5134 47.3105 23.5134 46.8752 23.2958 46.44L23.0128 45.8633C22.7952 45.428 22.5776 44.9819 22.3273 44.4977ZM32.1912 36.6142L32.6809 36.7883L35.1019 37.9036C35.5409 38.1029 35.9798 38.3024 36.4186 38.5021C36.5927 38.5837 36.7831 38.6653 36.7831 38.8884C36.7831 39.1278 36.5927 39.1604 36.4186 39.1931L36.3206 39.2148C36.0572 39.2781 35.7942 39.3434 35.5317 39.4107C34.8571 39.5793 34.1825 39.748 33.4915 39.8514C32.0443 40.069 31.2608 40.6511 30.8637 42.044C30.8147 42.2181 30.7549 42.3922 30.6896 42.5608C30.6025 42.8056 30.5209 43.0505 30.472 43.2899C30.3359 43.9427 29.917 44.008 29.411 44.0515L28.448 44.1604C27.9203 44.2148 27.3926 44.2801 26.8594 44.3127C26.4241 44.3399 26.1739 44.563 26.0106 44.9112C25.8855 45.1723 25.744 45.4226 25.608 45.6729C25.3469 46.1462 25.0803 46.6195 24.9225 47.1418C24.8463 47.3812 24.7375 47.7403 24.2859 47.7294C24.3948 46.4237 24.7212 45.156 25.2381 43.9591C25.5917 43.143 26.0868 42.4194 26.5819 41.7012C26.9954 41.0918 27.4089 40.4825 27.7408 39.8296C28.3501 38.6055 29.2424 37.6316 30.1455 36.6577L30.4284 36.3476C30.6189 36.1354 30.7494 36.0756 31.0051 36.1735C31.4023 36.3367 31.7995 36.4782 32.2021 36.6196L32.1912 36.6142Z" fill="black"/>
<path id="Vector_6" fill-rule="evenodd" clip-rule="evenodd" d="M36.3261 51.9623C36.0105 50.0363 36.054 48.2083 36.9409 46.353C38.5241 48.1376 38.486 50.2159 38.4534 52.2452L38.4425 53.0994C38.7145 53.2028 38.8614 53.1049 38.992 53.0178L39.1226 52.9416C39.8026 52.6424 40.0094 52.7675 40.1236 53.5238C40.3304 54.8948 40.3413 56.2822 40.3521 57.6641L40.3576 58.2626C40.3576 58.638 40.1563 58.91 39.8951 59.0841C39.196 59.6027 38.5637 60.2057 38.0127 60.8795C37.6536 61.2767 37.2945 61.6793 36.9028 62.0438C36.3641 62.5335 35.4501 62.6967 34.8571 62.2451L34.2858 61.8153C33.4262 61.1733 32.572 60.5368 31.7559 59.8349C31.3618 59.5309 31.0607 59.1226 30.8866 58.6562C30.7126 58.1899 30.6726 57.6841 30.7712 57.1962C30.8637 56.6304 30.9126 56.0537 30.9616 55.4715C31.0051 55.0145 31.0432 54.5575 31.1031 54.1005C31.2554 52.9743 31.4676 52.8437 32.4904 53.2898C32.5829 53.3279 32.6754 53.3551 32.7679 53.3769C33.0127 53.4422 33.2684 53.5129 33.4915 53.8121L33.6003 52.996C33.6874 52.3432 33.769 51.7393 33.7635 51.1245V51.0918C33.7635 51.0048 33.7635 50.896 33.72 50.8633C32.7407 50.1996 32.9202 49.3291 33.3555 48.4858L33.4099 48.3769C33.7307 47.8471 33.9502 47.2623 34.0573 46.6523C34.0573 46.587 34.1172 46.5271 34.1661 46.4673L34.2314 46.3911L34.313 46.4074L34.3946 46.4292C34.4762 46.995 34.7755 47.4466 35.0693 47.9036C35.3195 48.2899 35.5698 48.6762 35.695 49.1278C35.8364 49.6664 35.7494 50.1179 35.3631 50.4607C34.9822 50.8035 34.9278 51.2006 34.9822 51.6576L35.0203 51.9841C35.053 52.2398 35.0856 52.5009 35.0965 52.7621C35.1454 53.7251 35.2923 53.8448 36.3424 53.6544C36.4458 53.1103 36.4131 52.5662 36.3261 51.9623ZM37.9202 59.688C37.9746 59.6336 38.0399 59.5847 38.0997 59.5357C38.2287 59.42 38.365 59.3128 38.5078 59.2147C39.2695 58.725 39.6394 58.0939 39.5088 57.1309C39.4381 56.6032 39.4544 56.07 39.4544 55.5314C39.4653 55.2539 39.4653 54.9764 39.4599 54.699V54.5684C39.4599 54.3181 39.4599 54.0624 39.2422 53.8611C38.992 53.9155 38.758 54.0243 38.5295 54.1331C38.2031 54.28 37.8766 54.4269 37.523 54.4269C37.1204 54.4269 36.7178 54.4378 36.3152 54.4541C35.0312 54.4977 33.7472 54.5466 32.5122 54.0298C32.0878 53.8502 31.9191 53.9862 31.8974 54.4324C31.843 55.5205 31.707 56.5978 31.5111 57.6641L31.5057 57.6859C31.4404 58.0286 31.3696 58.4312 31.7015 58.7087C32.8784 59.6731 34.0609 60.6307 35.2488 61.5814C35.6732 61.9296 36.1084 61.8534 36.3968 61.4399C36.6277 61.1321 36.8805 60.8411 37.153 60.5694C37.4088 60.2974 37.6753 60.0145 37.9147 59.688H37.9202ZM36.8157 49.476C36.881 49.5086 36.9517 49.5467 37.0225 49.5195L37.6753 49.4379C37.2401 49.884 36.9735 49.8894 36.5274 49.4814C36.6307 49.378 36.7232 49.427 36.8157 49.476Z" fill="black"/>
</g>
<g id="Group_6">
<path id="Vector_7" d="M37.2782 3.45354C38.0943 5.61891 38.8451 7.25111 38.7036 9.53073C38.6492 10.3686 38.0399 11.6907 37.8331 12.4959C37.5448 13.6058 36.9409 14.6232 36.8701 15.7983C36.8593 15.9452 36.7505 16.0432 36.5002 16.0921C36.0758 15.5372 36.0214 14.8299 35.9996 14.177C35.9344 12.1368 35.8364 10.1074 35.3794 8.11617C35.2488 7.55578 35.0366 7.0226 34.8136 6.33708C34.6123 8.18689 34.6123 8.17601 32.9311 8.20322C29.9061 8.25762 26.892 8.43716 23.8997 8.87242C23.0455 8.99755 22.9748 8.94314 22.3872 7.84958C21.7887 8.25218 21.805 8.97035 21.5058 9.51441C20.5972 11.1956 19.4275 12.621 17.6973 13.535C17.0989 13.8506 15.8802 13.8071 14.4982 13.4426C13.9814 15.0911 12.73 16.522 13.1707 18.4588C13.2464 18.7762 13.2515 19.1064 13.1857 19.426C13.1199 19.7456 12.9848 20.0469 12.7899 20.3086C12.5831 20.6024 12.3546 20.6514 12.0717 20.5643C11.7834 20.4773 11.9194 20.2434 11.9248 20.042C11.952 18.2684 11.5222 16.5872 10.5157 15.1292C9.59078 13.7799 7.40908 14.1172 6.71268 15.6406C6.58755 15.9235 6.5277 16.2608 6.08701 16.5328C6.0054 15.5372 5.98907 14.6286 6.09245 13.7309C6.30072 11.6403 6.75733 9.58191 7.45261 7.59931C8.47537 4.71615 10.2686 2.16836 12.6375 0.232681C15.1584 -1.79979 18.226 -3.03816 21.4514 -3.3255C22.1042 -3.39623 22.7517 -3.52136 23.4046 -3.58665C25.6965 -3.80799 28.0089 -3.51429 30.1727 -2.72703C33.0998 -1.69331 35.6242 -0.10464 36.9463 2.86051C37.0279 3.05093 37.1476 3.22503 37.2782 3.45354ZM11.3916 22.6753C11.6093 22.6155 11.7616 22.6264 11.8269 22.8331C12.2948 24.1497 12.3165 25.5208 12.2512 26.8864C12.224 27.4087 11.359 28.0398 10.6354 28.1377C9.94442 28.2248 9.30242 28.1323 8.89438 27.4848C8.67675 27.1421 8.83997 26.7776 8.9651 26.3695C8.18709 26.3913 7.51245 26.6959 6.81605 26.3695C5.89114 25.9397 5.79865 25.5317 6.53314 24.8461L6.72356 24.6122C6.39712 24.1987 5.86394 24.1389 5.52662 23.7689C5.15122 23.3717 5.09681 22.9963 5.40149 22.5991C5.80409 22.0823 6.44609 21.9844 6.88134 22.3271C7.05 22.4468 7.19145 22.61 7.28939 22.795C7.4941 23.2047 7.81082 23.5479 8.20277 23.7848C8.59472 24.0217 9.04583 24.1426 9.50373 24.1334C10.4939 24.1606 11.0434 23.573 11.3916 22.6753Z" fill="black"/>
</g>
<g id="Group_7">
<path id="Vector_8" d="M24.5742 29.0789C24.4437 30.0419 25.4502 30.8471 26.337 30.4934C26.1031 29.6338 25.2054 29.5468 24.5742 29.0789Z" fill="white"/>
<path id="Vector_9" fill-rule="evenodd" clip-rule="evenodd" d="M23.9921 30.0037C24.6667 31.2768 25.9507 31.6305 27.349 30.8905C27.9203 30.5423 28.1596 29.9874 28.3664 29.4705C28.4551 29.2596 28.4939 29.031 28.4798 28.8027C28.4656 28.5743 28.3989 28.3522 28.2848 28.1539C27.5231 26.7502 26.5873 26.7121 25.4611 26.9243C24.2369 27.1583 23.4045 28.9047 23.9921 30.0037ZM26.337 30.4934C25.4502 30.847 24.4437 30.0418 24.5743 29.0788C24.7756 29.2257 24.9986 29.3345 25.2217 29.4433C25.7059 29.6773 26.1792 29.9058 26.337 30.4934Z" fill="black"/>
<path id="Vector_10" d="M23.7038 26.4238C24.1499 26.6251 24.1227 26.9298 23.9323 27.2399C23.7908 27.4848 23.5786 27.6317 23.2957 27.4575C23.0346 27.2943 23.0944 27.0713 23.2413 26.8591C23.361 26.6959 23.4045 26.4619 23.7038 26.4238Z" fill="black"/>
</g>
<g id="Group_8">
<path id="Vector_11" d="M28.5134 23.9538C28.2413 23.9647 28.04 23.932 27.8605 23.796C27.7081 23.6872 27.6864 23.5349 27.719 23.3662C27.7462 23.1867 27.8931 23.1595 28.0346 23.1703C28.8017 23.2084 29.558 23.1431 30.2707 22.8221C30.4448 22.7405 30.5971 22.8113 30.6896 22.9636C30.7821 23.1323 30.7984 23.3064 30.6461 23.475C30.3741 23.7906 30.0367 23.9647 29.6124 23.9538H28.5188H28.5134Z" fill="black"/>
</g>
<g id="Group_9">
<path id="Vector_12" d="M33.0399 20.0583C32.8114 19.5415 32.5013 19.2314 31.9626 19.2042C31.6362 19.1878 31.5818 18.9267 31.4784 18.671C31.5872 18.5894 31.6688 18.4697 31.7668 18.4642C32.9148 18.3717 34.0736 18.3663 35.2216 18.4588C35.548 18.4806 35.7276 18.894 35.3957 19.0246C34.8516 19.2422 34.7156 19.7428 34.3892 20.1019C33.943 20.5915 33.5622 20.597 33.0399 20.0583ZM22.6483 18.4479C23.312 18.486 23.9051 18.5023 24.4981 18.5567C24.6939 18.5731 24.9333 18.6547 24.9333 18.9213C24.9333 19.2259 24.6831 19.2042 24.4818 19.1987C24.139 19.1987 23.954 19.3456 23.8017 19.6666C23.6167 20.0692 23.4263 20.499 22.8224 20.4718C22.2511 20.4446 22.0008 20.0801 21.8376 19.6449C21.7179 19.3347 21.5656 19.1878 21.2391 19.1987C21.0542 19.2042 20.8529 19.1878 20.8311 18.9321C20.8093 18.6601 20.9943 18.6057 21.2119 18.5404C21.68 18.4157 22.1681 18.3843 22.6483 18.4479Z" fill="black"/>
</g>
<g id="Group_10">
<path id="Vector_13" d="M26.2718 15.1183C25.9672 16.0323 25.9127 15.9561 25.0205 15.7494C23.595 15.423 22.1533 14.7048 20.6516 15.5154C20.5428 15.5753 20.3796 15.5699 20.2382 15.559C20.0423 15.5481 19.792 15.6297 19.6887 15.3794C19.5744 15.1074 19.7703 14.9279 19.977 14.819C21.0488 14.275 22.0172 13.497 23.372 13.6384C24.0684 13.7092 24.7865 13.4861 25.5101 13.5078C26.533 13.5459 26.7288 13.818 26.3806 14.8082L26.2718 15.1237V15.1183ZM35.3849 13.954C35.9072 14.3131 36.065 14.868 36.3805 15.3141C36.4397 15.3882 36.4691 15.4816 36.4631 15.5762C36.4571 15.6707 36.416 15.7597 36.3479 15.8256C36.2173 15.9725 36.0541 15.9779 35.9072 15.8908C34.868 15.2924 33.7908 15.5426 32.7516 15.8256C32.1967 15.9725 31.9573 15.782 31.8158 15.325C31.7233 15.0149 31.6581 14.6993 31.62 14.3784C31.5492 13.8452 31.9954 13.7309 32.3273 13.7146C33.3338 13.6656 34.3621 13.4698 35.3849 13.954Z" fill="black"/>
</g>
</g>
</g>
</g>
</g>
</g>
</g>
<defs>
<clipPath id="clip0_25_225">
<path d="M0.744263 0.744141H48.1866V48.1865H0.744263V0.744141Z" fill="white"/>
</clipPath>
</defs>
</svg>
