<svg width="17" height="16" viewBox="0 0 17 16" fill="none" xmlns="http://www.w3.org/2000/svg">
<g id="Frame">
<g clip-path="url(#clip0_28_115)">
<path id="Vector" d="M9.04688 1C9.04688 0.446875 8.6 0 8.04688 0C7.49375 0 7.04688 0.446875 7.04688 1V8C7.04688 8.55313 7.49375 9 8.04688 9C8.6 9 9.04688 8.55313 9.04688 8V1ZM4.53125 3.76875C4.95625 3.41562 5.0125 2.78437 4.65938 2.35938C4.30625 1.93438 3.675 1.87813 3.25 2.23125C1.6 3.60625 0.546875 5.68125 0.546875 8C0.546875 12.1406 3.90625 15.5 8.04688 15.5C12.1875 15.5 15.5469 12.1406 15.5469 8C15.5469 5.68125 14.4906 3.60625 12.8406 2.23125C12.4156 1.87813 11.7844 1.9375 11.4312 2.35938C11.0781 2.78125 11.1375 3.41562 11.5594 3.76875C12.775 4.77812 13.5437 6.3 13.5437 8C13.5437 11.0375 11.0812 13.5 8.04375 13.5C5.00625 13.5 2.54375 11.0375 2.54375 8C2.54375 6.3 3.31562 4.77812 4.52812 3.76875H4.53125Z" fill="#1A1A1A"/>
</g>
</g>
<defs>
<clipPath id="clip0_28_115">
<path d="M0.046875 0H16.0469V16H0.046875V0Z" fill="white"/>
</clipPath>
</defs>
</svg>
